<?xml version="1.0" encoding="utf-8"?>
<!-- Generator: Adobe Illustrator 17.1.0, SVG Export Plug-In . SVG Version: 6.00 Build 0)  -->
<!DOCTYPE svg PUBLIC "-//W3C//DTD SVG 1.1//EN" "http://www.w3.org/Graphics/SVG/1.1/DTD/svg11.dtd">
<svg version="1.1" id="Layer_2" xmlns="http://www.w3.org/2000/svg" xmlns:xlink="http://www.w3.org/1999/xlink" x="0px" y="0px"
	 viewBox="0 0 650.1 296" enable-background="new 0 0 650.1 296" xml:space="preserve">
<path fill="#929397" d="M483.5,164.7c0-0.9,0-1.9,0-2.8c0-87.7-71.1-158.7-158.7-158.7S166.1,74.2,166.1,161.8c0,0.9,0,1.9,0,2.8
	H483.5z"/>
<path fill="#FFFFFF" d="M481.1,164.7c0-0.9,0-1.9,0-2.8c0-86.4-70-156.4-156.4-156.4s-156.4,70-156.4,156.4c0,0.9,0,1.9,0,2.8H481.1
	z"/>
<path fill="#929397" d="M430.5,164.7c0-0.9,0-1.9,0-2.8c0-58.4-47.3-105.7-105.7-105.7c-58.4,0-105.7,47.3-105.7,105.7
	c0,0.9,0,1.9,0,2.8H430.5z"/>
<path fill="#224D97" d="M428.5,164.7c0-0.9,0-1.9,0-2.8c0-57.3-46.4-103.7-103.7-103.7c-57.3,0-103.7,46.4-103.7,103.7
	c0,0.9,0,1.9,0,2.8H428.5z"/>
<polygon fill="#FFFFFF" points="266.1,96.5 269,102.4 275.5,103.4 270.8,108 271.9,114.5 266.1,111.4 260.2,114.5 261.3,108 
	256.6,103.4 263.1,102.4 "/>
<polygon fill="#FFFFFF" points="311,70.6 314,76.6 320.5,77.5 315.8,82.2 316.9,88.7 311,85.6 305.1,88.7 306.3,82.2 301.5,77.5 
	308.1,76.6 "/>
<polygon fill="#FFFFFF" points="342.4,85.1 345.3,91 351.8,92 347.1,96.6 348.2,103.1 342.4,100 336.5,103.1 337.6,96.6 332.9,92 
	339.4,91 "/>
<polygon fill="#FFFFFF" points="383.6,100.5 386.5,106.5 393.1,107.4 388.3,112.1 389.5,118.6 383.6,115.5 377.7,118.6 378.8,112.1 
	374.1,107.4 380.7,106.5 "/>
<polygon fill="#FFFFFF" points="319.4,107 322.4,113 328.9,113.9 324.2,118.6 325.3,125.1 319.4,122 313.6,125.1 314.7,118.6 
	309.9,113.9 316.5,113 "/>
<polygon fill="#929397" points="206.4,243.2 230.3,292.1 414.3,292.1 441.1,243.2 "/>
<polygon fill="#929397" points="171.7,200 191.1,263.3 452.4,263.3 475.7,200 "/>
<polygon fill="#FFFFFF" points="192.7,261.1 174.8,202.3 472.5,202.3 450.8,261.1 "/>
<path fill="#929397" d="M325.7,206c0,0,169.2,0,170.6,0s10.2,0.4,10.2-8v-7.1c0,0,14.1,0,21.4,0c7.3,0,14.9-3.1,14.9-14.7
	c0,0,6.3,0,13.5,0c7.1,0,12-1.4,12-15.1c0,0,6.5,0,14.5,0c8,0,10.4-4.3,10.4-14.1c0,0,6.9,0,15.1,0c8.2,0,9.2-7.3,9.2-14.9
	c0,0,10.8,0,19,0c5.1-0.4,14.7-17.8,3.3-17.1h-162l-11,13.5H325.4H183.9l-11-13.5h-162c-11.4-0.6-1.8,16.7,3.3,17.1c8.2,0,19,0,19,0
	c0,7.5,1,14.9,9.2,14.9s15.1,0,15.1,0c0,9.8,2.4,14.1,10.4,14.1s14.5,0,14.5,0c0,13.7,4.9,15.1,12,15.1c7.1,0,13.5,0,13.5,0
	c0,11.6,7.5,14.7,14.9,14.7c7.3,0,21.4,0,21.4,0v7.1c0,8.4,8.8,8,10.2,8s170.6,0,170.6,0H325.7z"/>
<g>
	<g>
		<path fill="#929397" d="M221.3,223.7c2.9,0,5.4,1,7.4,2.9c2,2,3,4.4,3,7.2c0,2.8-1,5.2-3,7.2s-4.4,3-7.2,3c-2.9,0-5.3-1-7.3-3
			c-2-2-3-4.4-3-7.1c0-1.9,0.5-3.6,1.4-5.2s2.1-2.8,3.7-3.7C217.8,224.1,219.5,223.7,221.3,223.7z M221.4,225.6
			c-1.4,0-2.8,0.4-4.1,1.1c-1.3,0.7-2.3,1.8-3,3c-0.7,1.3-1.1,2.7-1.1,4.2c0,2.3,0.8,4.3,2.4,5.8c1.6,1.6,3.5,2.4,5.8,2.4
			c1.5,0,2.9-0.4,4.2-1.1c1.3-0.7,2.3-1.7,3-3c0.7-1.3,1.1-2.7,1.1-4.2c0-1.5-0.4-2.9-1.1-4.2c-0.7-1.2-1.7-2.2-3-3
			C224.2,225.9,222.9,225.6,221.4,225.6z"/>
		<path fill="#929397" d="M234.5,224.2h2l4,14l5.6-14h0.4l5.5,14l4-14h2l-5.6,19.4h-0.4l-5.8-14.7l-5.9,14.7H240L234.5,224.2z"/>
		<path fill="#929397" d="M261.5,243.6v-19.4h0.4l12.9,14.9v-14.9h1.9v19.4h-0.4l-12.8-14.7v14.7H261.5z"/>
		<path fill="#929397" d="M281.5,224.2h11.1v1.9h-9.2v6.1h9.1v1.9h-9.1v7.6h9.1v1.9h-11V224.2z"/>
		<path fill="#929397" d="M296,224.2h3.9c2.2,0,3.6,0.1,4.4,0.3c1.2,0.3,2.1,0.8,2.8,1.7c0.7,0.9,1.1,1.9,1.1,3.2
			c0,1.1-0.2,2-0.7,2.8s-1.2,1.4-2.1,1.8c-0.9,0.4-2.2,0.6-3.8,0.6l7,9H306l-7-9H298v9H296V224.2z M298,226.1v6.6l3.3,0
			c1.3,0,2.3-0.1,2.9-0.4c0.6-0.2,1.1-0.6,1.5-1.2c0.3-0.5,0.5-1.1,0.5-1.8c0-0.7-0.2-1.2-0.5-1.8c-0.4-0.5-0.8-0.9-1.4-1.1
			s-1.5-0.3-2.9-0.3H298z"/>
		<path fill="#929397" d="M310.3,239.9l1.6-1c1.2,2.1,2.5,3.2,4,3.2c0.7,0,1.3-0.2,1.8-0.5c0.6-0.3,1-0.7,1.3-1.2
			c0.3-0.5,0.4-1,0.4-1.6c0-0.7-0.2-1.3-0.7-1.9c-0.6-0.9-1.7-1.9-3.3-3.1c-1.6-1.2-2.6-2.1-3-2.6c-0.7-0.9-1-1.9-1-3
			c0-0.8,0.2-1.6,0.6-2.3s1-1.2,1.7-1.6c0.7-0.4,1.5-0.6,2.4-0.6c0.9,0,1.8,0.2,2.6,0.7c0.8,0.5,1.6,1.3,2.5,2.5l-1.6,1.2
			c-0.7-1-1.4-1.6-1.9-1.9s-1.1-0.5-1.7-0.5c-0.8,0-1.4,0.2-1.9,0.7c-0.5,0.5-0.7,1.1-0.7,1.8c0,0.4,0.1,0.8,0.3,1.2s0.5,0.8,1,1.3
			c0.3,0.2,1.1,0.9,2.5,1.9c1.7,1.2,2.8,2.3,3.5,3.3s0.9,1.9,0.9,2.9c0,1.4-0.5,2.6-1.6,3.7c-1.1,1-2.4,1.6-3.9,1.6
			c-1.2,0-2.2-0.3-3.2-0.9C312,242.5,311.1,241.4,310.3,239.9z"/>
		<path fill="#929397" d="M351.3,227.8l-1.5,1.2c-0.8-1.1-1.9-1.9-3-2.5c-1.2-0.6-2.5-0.9-3.9-0.9c-1.5,0-3,0.4-4.3,1.1
			s-2.3,1.7-3.1,3c-0.7,1.3-1.1,2.7-1.1,4.2c0,2.4,0.8,4.3,2.4,5.9s3.7,2.4,6.1,2.4c2.7,0,5-1.1,6.8-3.2l1.5,1.2
			c-1,1.2-2.2,2.2-3.6,2.9c-1.4,0.7-3.1,1-4.8,1c-3.4,0-6.1-1.1-8-3.4c-1.6-1.9-2.5-4.2-2.5-6.9c0-2.8,1-5.2,3-7.2
			c2-1.9,4.5-2.9,7.5-2.9c1.8,0,3.4,0.4,4.9,1.1C349.2,225.5,350.4,226.5,351.3,227.8z"/>
		<path fill="#929397" d="M355.2,224.2h1.9v17.5h7.5v1.9h-9.4V224.2z"/>
		<path fill="#929397" d="M367.7,224.2h1.9v11.7c0,1.4,0,2.3,0.1,2.6c0.1,0.8,0.3,1.4,0.7,1.9c0.4,0.5,0.9,0.9,1.6,1.3
			c0.7,0.3,1.5,0.5,2.2,0.5c0.6,0,1.3-0.1,1.8-0.4s1.1-0.7,1.5-1.1s0.7-1.1,0.9-1.8c0.1-0.5,0.2-1.5,0.2-3v-11.7h1.9v11.7
			c0,1.7-0.2,3.1-0.5,4.2c-0.3,1.1-1,2-2,2.8c-1,0.8-2.2,1.2-3.7,1.2c-1.6,0-2.9-0.4-4-1.1c-1.1-0.7-1.9-1.7-2.2-3
			c-0.2-0.8-0.4-2.1-0.4-4.1V224.2z"/>
		<path fill="#929397" d="M385.4,224.2h3.8c1.5,0,2.7,0.2,3.5,0.5c0.8,0.4,1.5,0.9,2,1.7c0.5,0.8,0.7,1.6,0.7,2.5
			c0,0.9-0.2,1.6-0.6,2.4c-0.4,0.7-1,1.3-1.8,1.7c1,0.3,1.8,0.7,2.3,1.2c0.5,0.5,1,1,1.3,1.7c0.3,0.7,0.5,1.4,0.5,2.1
			c0,1.6-0.6,2.9-1.7,3.9c-1.1,1.1-2.7,1.6-4.6,1.6h-5.3V224.2z M387.3,226.1v6.2h1.1c1.3,0,2.3-0.1,3-0.4s1.1-0.6,1.5-1.2
			c0.4-0.5,0.6-1.1,0.6-1.8c0-0.9-0.3-1.6-0.9-2.1c-0.6-0.5-1.6-0.8-3-0.8H387.3z M387.3,234.2v7.4h2.4c1.4,0,2.5-0.1,3.1-0.4
			c0.7-0.3,1.2-0.7,1.6-1.3s0.6-1.2,0.6-1.9c0-0.9-0.3-1.6-0.8-2.3s-1.3-1.1-2.3-1.3c-0.7-0.2-1.8-0.2-3.4-0.2H387.3z"/>
	</g>
	<g>
		<path fill="#929397" d="M402.6,229.8h1.4v14.1h-1.4V229.8z"/>
		<path fill="#929397" d="M407.2,243.8v-14.1h0.3l9.4,10.8v-10.8h1.4v14.1h-0.3l-9.3-10.6v10.6H407.2z"/>
		<path fill="#929397" d="M434.7,232.4l-1.1,0.9c-0.6-0.8-1.3-1.4-2.2-1.8c-0.9-0.4-1.8-0.6-2.8-0.6c-1.1,0-2.2,0.3-3.1,0.8
			c-1,0.5-1.7,1.3-2.2,2.2c-0.5,0.9-0.8,1.9-0.8,3.1c0,1.7,0.6,3.1,1.8,4.3s2.7,1.7,4.4,1.7c2,0,3.6-0.8,4.9-2.3l1.1,0.8
			c-0.7,0.9-1.6,1.6-2.6,2.1s-2.2,0.7-3.5,0.7c-2.5,0-4.4-0.8-5.8-2.5c-1.2-1.4-1.8-3.1-1.8-5c0-2.1,0.7-3.8,2.2-5.2
			c1.4-1.4,3.2-2.1,5.4-2.1c1.3,0,2.5,0.3,3.6,0.8C433.2,230.7,434.1,231.5,434.7,232.4z"/>
	</g>
</g>
<g>
	<path fill="#929397" d="M219.6,106.9l-18.1-11.7l0.3-0.4l21.7-3.1l-13.9-8.9l1.2-1.8l18.1,11.7l-0.3,0.4l-21.4,3.1l13.7,8.8
		L219.6,106.9z"/>
	<path fill="#929397" d="M215.5,74.9l8.2-9.2l1.6,1.4l-6.8,7.6l5,4.5l6.7-7.6l1.6,1.4l-6.7,7.6l6.3,5.6l6.7-7.6l1.6,1.4l-8.1,9.2
		L215.5,74.9z"/>
	<path fill="#929397" d="M227.3,61.5l1.7-1.4l13,9.5l-4.7-16l0.4-0.3l14.4,8.5l-6.1-15l1.7-1.4l8.4,20.8l-0.3,0.2l-15.1-8.9
		l4.9,16.9l-0.3,0.2L227.3,61.5z"/>
	<path fill="#929397" d="M267.5,54.8l1.2-1.8c2.1,1.6,4,2.1,5.5,1.4c0.7-0.3,1.2-0.7,1.7-1.3c0.4-0.6,0.7-1.2,0.8-1.8
		c0.1-0.7,0-1.3-0.3-1.8c-0.3-0.7-0.8-1.2-1.5-1.6c-1-0.6-2.6-1.1-4.8-1.6c-2.2-0.5-3.6-0.9-4.3-1.3c-1.1-0.6-1.9-1.5-2.4-2.5
		c-0.4-0.9-0.5-1.7-0.4-2.6c0.1-0.9,0.4-1.7,1-2.4c0.6-0.7,1.3-1.3,2.2-1.7c0.9-0.4,1.9-0.6,2.9-0.5c1,0.1,2.2,0.6,3.7,1.4l-1.1,1.9
		c-1.2-0.6-2.1-1-2.8-1.1c-0.7-0.1-1.3,0-1.9,0.3c-0.8,0.4-1.3,0.9-1.6,1.6c-0.3,0.7-0.3,1.4,0,2.1c0.2,0.4,0.5,0.8,0.8,1.1
		c0.4,0.3,0.9,0.6,1.6,0.9c0.4,0.1,1.5,0.4,3.4,0.8c2.3,0.5,3.9,1.1,5,1.8c1.1,0.7,1.8,1.5,2.3,2.5c0.6,1.4,0.7,2.9,0,4.4
		c-0.6,1.5-1.7,2.7-3.2,3.3c-1.2,0.5-2.4,0.7-3.7,0.5C270.3,56.6,268.9,55.9,267.5,54.8z"/>
	<path fill="#929397" d="M288.4,27.7c3.2-0.8,6.1-0.5,8.8,1.1c2.7,1.6,4.4,3.9,5.2,7c0.8,3.1,0.4,5.9-1.2,8.6
		c-1.6,2.7-3.9,4.4-6.9,5.2c-3.1,0.8-6,0.4-8.7-1.1c-2.7-1.6-4.4-3.8-5.2-6.9c-0.5-2-0.5-4,0-5.9c0.5-2,1.5-3.6,2.9-5
		C284.7,29.2,286.4,28.2,288.4,27.7z M289,29.7c-1.5,0.4-2.9,1.2-4.1,2.3c-1.2,1.2-2,2.5-2.4,4.1c-0.4,1.6-0.4,3.2,0,4.9
		c0.6,2.5,2,4.3,4.2,5.6s4.5,1.6,6.9,0.9c1.6-0.4,3-1.2,4.2-2.3c1.2-1.1,2-2.5,2.4-4.1c0.4-1.6,0.4-3.2,0-4.8
		c-0.4-1.7-1.2-3.1-2.3-4.2c-1.1-1.1-2.5-1.9-4.1-2.4S290.5,29.3,289,29.7z"/>
	<path fill="#929397" d="M307,24.5l2.1-0.2l0.9,13c0.1,1.5,0.2,2.5,0.3,2.9c0.2,0.8,0.5,1.5,0.9,2.1s1.1,1,1.9,1.3
		c0.8,0.3,1.7,0.5,2.5,0.4c0.7,0,1.4-0.2,2-0.6c0.6-0.3,1.1-0.8,1.5-1.4c0.4-0.6,0.7-1.2,0.8-2c0.1-0.6,0.1-1.7,0-3.4l-0.9-13
		l2.1-0.2l0.9,13c0.1,1.9,0.1,3.5-0.2,4.7c-0.3,1.2-1,2.3-2,3.2c-1.1,1-2.4,1.5-4,1.6c-1.7,0.1-3.2-0.2-4.5-0.9
		c-1.3-0.7-2.2-1.8-2.7-3.1c-0.3-0.8-0.6-2.3-0.7-4.5L307,24.5z"/>
	<path fill="#929397" d="M326.4,25.7l0.1-2.1l11.8,0.7l-0.1,2.1l-4.8-0.3l-1.1,19.4l-2.2-0.1l1.1-19.4L326.4,25.7z"/>
	<path fill="#929397" d="M343.6,24.8l2.1,0.4l-1.7,8.9l10.8,2.1l1.7-8.9l2.1,0.4l-4.1,21.1l-2.1-0.4l2-10.2l-10.8-2.1l-2,10.2
		l-2.1-0.4L343.6,24.8z"/>
	<path fill="#929397" d="M374.7,32.5l2,1l-3,15.9l12.4-11.2l0.4,0.2L385.1,55L396,43.1l2,1l-15.1,16.6l-0.4-0.2L384,43l-13.1,11.7
		l-0.4-0.2L374.7,32.5z"/>
	<path fill="#929397" d="M411,53.8L405.5,77l-1.8-1.4l1.7-7.7l-7.3-5.7l-7,3.5l-1.9-1.5l21.3-10.7L411,53.8z M407.9,57.3l-7.7,3.9
		l5.8,4.6L407.9,57.3z"/>
	<path fill="#929397" d="M422.8,64.2l1.5,1.6l-14.1,13.4l5.7,6l-1.5,1.4l-7.2-7.6L422.8,64.2z"/>
	<path fill="#929397" d="M433.4,75.9l7.4,9.9l-1.7,1.3l-6.1-8.2l-5.4,4l6,8.1l-1.7,1.3l-6-8.1l-6.8,5.1l6,8.1l-1.7,1.3l-7.3-9.8
		L433.4,75.9z"/>
	<path fill="#929397" d="M427.5,97.5l1.9,1.1c-1.4,2.3-1.7,4.2-0.9,5.6c0.4,0.6,0.8,1.1,1.4,1.5c0.6,0.4,1.2,0.6,1.9,0.6
		c0.7,0,1.3-0.1,1.8-0.5c0.6-0.4,1.1-0.9,1.5-1.7c0.5-1.1,0.9-2.7,1.2-4.9c0.3-2.2,0.6-3.7,0.9-4.4c0.5-1.2,1.3-2,2.3-2.6
		c0.8-0.5,1.7-0.7,2.6-0.7c0.9,0,1.7,0.3,2.5,0.8c0.8,0.5,1.4,1.2,1.9,2c0.5,0.9,0.7,1.8,0.7,2.9c0,1-0.3,2.3-1,3.8l-2-0.9
		c0.5-1.2,0.8-2.2,0.8-2.8c0-0.7-0.1-1.3-0.5-1.9c-0.4-0.8-1-1.2-1.7-1.5c-0.7-0.2-1.4-0.1-2.1,0.2c-0.4,0.2-0.8,0.5-1,0.9
		s-0.5,0.9-0.7,1.6c-0.1,0.4-0.3,1.5-0.5,3.5c-0.3,2.3-0.7,4-1.3,5.2c-0.6,1.1-1.4,2-2.3,2.5c-1.4,0.8-2.8,0.9-4.4,0.5
		s-2.8-1.4-3.6-2.9c-0.6-1.1-0.9-2.3-0.8-3.6S426.5,99.1,427.5,97.5z"/>
</g>
<g>
	<path fill="#D61746" d="M481.3,158.9c-1.3,0-2.3-0.8-3.6,1.2c-1.3,2-5.8,8.5-7.1,9.1c-1.3,0.6-5.3,1.9-6.6,0.1
		c-1.3-1.8-0.2-4.2,0.3-5.4c0-0.1,1.7-4.1,1.6-4.6c-0.4-1.1-3.6-1.7-4.6-0.6c-0.6,0.6-2.3,3.6-3.2,5.3c-0.3,0.5-0.4,1.1-0.9,1.8
		c-0.6,0.8-5.3,4.2-6.7,4.5c-1.5,0.4-6.2,0.6-3.8-0.9c2.6-1.6,5.1-5.8,5.4-7.3c0.3-1.5,1-3.2-2.6-4.8c-3.7-1.7-7.5-1.8-10.3,0.3
		c-5.3,4-6,11.8-6.1,11.9c-0.2,0.6,0.8,1.1-1.7,1.1c-1.6-0.1-4.4-1.1-4.1-3.2c0.4-2.8,4.7-13.9,6-14.9c1.2-1.1,0.9-3.1-1.5-2.9
		c-2.4,0.2-2.7,0.1-4.6,2.9c-1.8,2.8-6.8,13.9-7.6,14.9c-2.1,2.8-4.3,3.3-4.7,3.2c-1.2-0.2-1.1-1.7-0.8-3.2c0.2-0.7,1.5-5.4,1.9-6.8
		c0.4-1.3,1-3.2-0.6-3.2c-1.6,0-3.1-0.4-3.6,0.1c-0.5,0.5-0.3,0.6-1,0.6c-0.7,0-0.3-0.1-1.1-0.4c-0.8-0.4-5.2-1.9-9.5,0.4
		c-5.5,3-4.5,5.9-6.5,8.5c-1.5,1.9-3.9,3.4-5.7,3.7c-1.8,0.3-3.6,0.6-3.2,0.3c1.3-1,2.3-2.5,3.3-3.9c0.7-0.9,2.4-5.9,0.2-8
		c-2.8-2.6-5.4-2.1-5.9-2c-1.1,0.1-3.7-0.4-7.2,3.8c-3.5,4.2-3.3,8-3.1,9.3c0.1,0.3-1.8,1.5-3.9,1.5c-3.4,0-3.5-0.9-3.9-1.8
		c-0.4-0.9-0.4-6.5,2.1-7.9c0.9-0.5,3.5-0.3,4.3-2.4c0.6-1.6-1.5-2.3-2.4-3.1c-0.7-0.6,5.6-13.7,5.4-14.3c-0.5-1.4-3.8-1.1-4.5-0.3
		c-0.8,1.1-6.7,13.8-6.7,13.8c-1,0.9-1.5,1.5-3,1.2c-1.2-0.3-1.5-0.6-1.7-1.2c-0.5-1.5,4.6-12.6,4.4-13.2c-0.8-2-3.5-1.5-4.3,0.1
		c-0.8,1.6-5.8,12.7-7,13.7c-0.5,0.4-0.7,0.1-3.7,0.1c-2.4,0-2.7,1.6-2.8,2.2c-0.2,1.4,0.2,2,0.8,2c1.9-0.3,5.6,0.1,3,3.5
		c-0.5,0.6-1.7,1.2-2.7,1.6c-1,0.4-3.7,0.4-4.3,1c-1.6,1.5-4.9,9.1-3,9.6c1.7,0.4,6-1,8.3-2.4c3.3-1.9,5.1-5.4,5.7-6.6
		c0.2-0.5,3.1-5.4,2.9-5.3c1.9-1.8,2.4-1.2,2.9,0.1c0.3,0.8-0.7,4.5-1,5.8c-0.3,1.3-0.5,5.5,0.4,6.5c0.9,1,2,1.8,2.9,2.1
		c2.2,0.6,3.5,1,7.6,0.4c1.3-0.2,3.3-0.8,4.2-0.8c0.9,0,1.3,0.6,2.6,1c1.3,0.4,3.6,0.6,4.8,0.6c1.2,0,2.8-0.2,3.8-0.4
		c0.9-0.2,6.1-1.2,6.7-1.6c0.6-0.4,2.9-1.9,3-1.8c0.2,0,3.5,2.4,3.5,2.4c0.1,0.1,4.2,1.6,6.9,1.1c2.2-0.4,2.9-1.3,3.8-1.2
		c1,0.1,2.3,1.5,4.7,1.4c2.3-0.1,6.4-1.8,6.3-1.8c2.9,1,4.9,1.2,7.7,1.5c3.9,0.4,9.9-1.9,11-2.5c1.1-0.6,2.1,1.8,5.1,1.8
		c5.7-0.2,5.6,0.2,8.6-1.1c1.4-0.6,3.4-1.5,4.6-2c0.4-0.2,2.5,2,3.4,2.4c1,0.4,4.1,1.3,5.5,1.3c0.7,0,1.6,1-0.4,4.2
		c-1.3,2.2-7.3,8.3-11.9,8.3c-0.4,0-254.3,0-254.3,0s-2.2,0.8-2.2,2.6c0,1.7,1.9,2.5,2.1,2.5c1.2,0,257.8,0,257.8,0s6-0.4,10.8-6.4
		c2.9-3.6,11.8-17.1,13.9-20.6c2-3.5,3.4-5,3.5-5.8C483.8,160.2,482.6,158.9,481.3,158.9z M382.5,166c-1.3,1-2.4,1.8-3.3,0.6
		c-0.8-1.1,0.9-5,2.6-5C384.2,161.6,384,164.9,382.5,166z M405.9,169.5c-1.4,0.8-4.2,0.7-4.8-1.5c-0.6-2.2,0.8-4.4,2.2-5.4
		c2.4-1.7,4.7-0.2,4.9,1.3C408.4,165.3,407.3,168.7,405.9,169.5z M445.6,163.2c-0.4,1-1.1,1.8-2.5,2.5c-1.3,0.7-2.3-0.2-2.1-1.2
		c0.2-1.1,1.9-2.8,3.1-3C445.4,161.2,445.9,162.2,445.6,163.2z"/>
	<path fill="#D61746" d="M279,145.9c-2.2,0.7-1.9,3.4-0.9,4.2c1.8,1.4,3.3-0.8,3.2-0.6C281.9,148.6,282.2,144.9,279,145.9z"/>
	<path fill="#D61746" d="M332.1,160.3c-0.7-0.4-3.4,0.8-4.8,1.1c-1.4,0.3-7.5,0.6-8.8,0.9c-2.8,0.6-5.5,1.2-5.7,5.3
		c-0.1,3.3,1.5,2.1,3.2,1.3c1.2-0.5,2.1-0.6,4.4-0.8c1.4-0.1,8.2-1.3,9.1-1.9c0.9-0.6,2.1-2.4,2.5-3.1
		C332.4,162.4,333,160.9,332.1,160.3z"/>
	<path fill="#D61746" d="M301.4,172.4c0.7-0.9,5-6.8,5.5-8.2c0.4-1.2,0.7-3.9-1.7-5.2c-3.4-1.9-5.8-1.1-6.7-0.7
		c-0.9,0.4-2.7,0.7-3.8,0.7c-1.1,0-0.6-0.4-1.3-1c-0.7-0.5-3.3-1-4.9,0.1c-1.6,1.1-3.3,4.7-4,6.3c-0.7,1.6-2.8,5.4-3.9,6
		c-1.1,0.5-4.2,2.1-6-0.5c-1.4-2.1-0.5-5.1,0-6.1c0.5-1.1,1.1-4.1-1.1-4.4c-3.5-0.4-3.3,1.1-4.2,2.6c-1.1,2-3.4,6.5-4.7,7.6
		c-1.3,1.1-4.7,2-6.3,0.6c-2.1-1.8,0.5-7,1.4-8.4c0.9-1.4,2.7-7.1,3.6-7.5c0.9-0.3,3.6,0.3,4.7-0.3c1.1-0.5,2.1-2.3,1.1-3.2
		c-1.1-0.9-2.5-0.4-3.7-1.1c-1.2-0.7,0-1.9-1.1-2.1c-1.1-0.2-4-0.4-4.9,0c-0.9,0.4-0.5,1.8-1.6,1.9c-1.1,0.2-3.5-0.5-4.4,0.2
		c-0.9,0.7-2.6,3.2-0.5,3.7c1.5,0.4,2.8-0.2,2.5,1.2c-0.4,1.4-3,7.9-3.7,9.3c-0.7,1.4-3.6,5-4.4,5.7c-2.6,2.4-3.2,1.1-2.8-0.4
		c0.2-0.8,0.4-2.3,0.4-3.9c0-1.6-0.2-5.6-1.6-6.5c-1.4-0.9-2.9-2-6,0.5c-1.9,1.6-10.9,9.1-11.2,9.5c-0.4,0.4-2.3,0.9-2.8-0.9
		c-0.5-1.8-0.5-3.2,0.5-4.7c1.1-1.6,1.8-3.8,1.2-4.6c-0.3-0.6-3.5-1.4-4-0.2c-1.1,2.6-3.3,5.9-4.4,7.1c-1.1,1.2-3.2,2.9-5.7,2.8
		c-1.2,0-3.2-0.5-2-2.6c1.2-2.1,3-5.7,2.6-6.8c-0.3-0.9-2.8-0.9-3.5-0.4c-1.8,1.1-4.2,7.2-6,8.9c-0.5,0.5-5,3.4-5.6,3.4
		c-2.1,0.2-4-2.1-4.4-3.5c-0.4-1.4,0-3.9,1.4-4.6c1.4-0.7,3.9-0.7,4.9-1.4c1.1-0.7,2.5-3,0.7-4c-1.8-1.1-4.8-1.1-4.2-3.8
		c0.4-1.8,2.1-7.7,1.7-10.4c-0.4-2.6-1.6-4.3-3.8-4.8c-2.5-0.6-5,0.8-6.3,2c-1.8,1.7-8.2,11.8-9.9,15c-0.3,0.5-1.3,0.4-2.2,0.3
		c-2.4-0.2-3.8,0.6-4.3,2.5c-0.5,1.9,0.1,3,1.1,3.2c0.9,0.2,2.1-0.1,2,0.9c-0.5,4.9-4.8,4.2-5.9,5c-1.4,1.1-2.7,5.1-2.7,6.1
		c-0.1,1.4-0.9,4-0.1,4c14.2,0,15.4-13.9,16.3-14.9c0.5-0.6,1.2-0.2,2.6-0.4c2.3-0.4,2.9,1,2.9,1l-0.6,5.9c0,0,0.1,4.4,1,5.6
		c0.9,1.2,2.9,4.3,8.4,1.4c3.5-1.8,3.8-2.8,4.4-2.7c0.7,0.1,1.8,2.1,3.1,2.5c1.4,0.6,3.8,1.4,7.3,0.3c1.3-0.4,2-0.8,3.3-1.5
		c0.9-0.5,1.2,1.6,2.5,1.9c1.2,0.4,4.6,0.8,6.5-0.2c1.9-1,3.5-1.4,4.8-2.2c0.9-0.5,1.8,1.7,3.1,2.2c1.2,0.5,2.7,1.1,4.2,1.2
		c2.7,0.2,7.6,0.3,9.3-0.2c1.9-0.5,4.2-2.5,5-2.8c0.8-0.3,2.5,2,3.9,2.6c1.2,0.5,4,1.1,6.1-0.3c2.1-1.4,5-3.5,6.1-3.5
		c1.1,0,2,2.8,3.9,3.7c1.8,0.8,3.9,0.9,5.3,0.5c1.4-0.4,4.4-1.2,6-1.2c0.3,0,1.3,0.6,1.8,0.8c1,0.4,2.3,1.1,3.2,0.1
		c0.9-1,6.7-12.2,7.5-13c1.3-1.3,3.7-1.8,4.9-0.8c0.9,0.7,1.1,1.9-0.2,4.4c-1.2,2.5-5.1,9.5-5.8,11.1c-1,2.4-1.7,8.7,3.7,8.7
		c4.7,0,6.8-5.1,6.8-6.1c0.1-1.7-0.7-1.1-1.6-0.8c-0.3,0.1-0.9,0.6-1.4,0.6c-0.7,0.1-1,0.3-2.1-0.4c-0.4-0.4-0.1-2.2,0.5-3.6
		C297.8,176.1,300.5,173.7,301.4,172.4z M190.4,154.3c-1.1,1.4-2.3,1.6-4,1.2c-2.4-0.5-2.1-3.4-2-4.1c0.2-1.7,3.2-6.3,4.4-6.2
		c1.3,0.1,2.1-0.2,2.9,1.1C192.6,147.6,191.3,153.2,190.4,154.3z M239.2,168.2c-0.2,1.6-0.7,3.1-3.6,4c-1.6,0.5-3.4-0.8-3.2-2.6
		c0.2-1.1,5.3-6.7,6.5-6.1C239.6,163.8,239.3,166.5,239.2,168.2z"/>
</g>
<path fill="#D1D1D1" d="M146.9,131c0,0.3-0.4,0.6-1,0.6H37.5c-0.6,0-1-0.3-1-0.6v-0.3c0-0.3,0.4-0.6,1-0.6h108.4c0.6,0,1,0.3,1,0.6
	V131z"/>
<path fill="#D1D1D1" d="M146.9,146.5c0,0.3-0.3,0.6-0.8,0.6H62.1c-0.4,0-0.8-0.3-0.8-0.6v-0.3c0-0.3,0.3-0.6,0.8-0.6h83.9
	c0.4,0,0.8,0.3,0.8,0.6V146.5z"/>
<path fill="#D1D1D1" d="M146.9,159.4c0,0.3-0.2,0.6-0.6,0.6H86.6c-0.3,0-0.6-0.3-0.6-0.6v-0.3c0-0.3,0.2-0.6,0.6-0.6h59.7
	c0.3,0,0.6,0.3,0.6,0.6V159.4z"/>
<path fill="#D1D1D1" d="M146.9,175.1c0,0.3-0.1,0.6-0.3,0.6h-33.5c-0.2,0-0.3-0.3-0.3-0.6v-0.3c0-0.3,0.1-0.6,0.3-0.6h33.5
	c0.2,0,0.3,0.3,0.3,0.6V175.1z"/>
<path fill="#D1D1D1" d="M503.9,131c0,0.3,0.4,0.6,1,0.6h108.4c0.6,0,1-0.3,1-0.6v-0.3c0-0.3-0.4-0.6-1-0.6H504.9c-0.6,0-1,0.3-1,0.6
	V131z"/>
<path fill="#D1D1D1" d="M503.9,146.5c0,0.3,0.3,0.6,0.8,0.6h83.9c0.4,0,0.8-0.3,0.8-0.6v-0.3c0-0.3-0.3-0.6-0.8-0.6h-83.9
	c-0.4,0-0.8,0.3-0.8,0.6V146.5z"/>
<path fill="#D1D1D1" d="M503.9,159.4c0,0.3,0.2,0.6,0.6,0.6h59.7c0.3,0,0.6-0.3,0.6-0.6v-0.3c0-0.3-0.2-0.6-0.6-0.6h-59.7
	c-0.3,0-0.6,0.3-0.6,0.6V159.4z"/>
<path fill="#D1D1D1" d="M503.9,175.1c0,0.3,0.1,0.6,0.3,0.6h33.5c0.2,0,0.3-0.3,0.3-0.6v-0.3c0-0.3-0.1-0.6-0.3-0.6h-33.5
	c-0.2,0-0.3,0.3-0.3,0.6V175.1z"/>
<g>
	<path fill="#FFFFFF" d="M254.2,271h6.5v1.1h-5.4v3.6h5.4v1.1h-5.4v4.5h5.4v1.1h-6.5V271z"/>
	<path fill="#FFFFFF" d="M261.5,280.3l1-0.6c0.7,1.3,1.5,1.9,2.4,1.9c0.4,0,0.7-0.1,1.1-0.3c0.3-0.2,0.6-0.4,0.8-0.7
		c0.2-0.3,0.3-0.6,0.3-1c0-0.4-0.1-0.8-0.4-1.1c-0.4-0.5-1-1.1-2-1.8c-1-0.7-1.5-1.2-1.8-1.6c-0.4-0.5-0.6-1.1-0.6-1.7
		c0-0.5,0.1-0.9,0.4-1.4s0.6-0.7,1-1c0.4-0.2,0.9-0.4,1.4-0.4c0.5,0,1,0.1,1.5,0.4c0.5,0.3,1,0.8,1.5,1.5l-0.9,0.7
		c-0.4-0.6-0.8-0.9-1.1-1.1c-0.3-0.2-0.6-0.3-1-0.3c-0.5,0-0.8,0.1-1.1,0.4c-0.3,0.3-0.4,0.6-0.4,1c0,0.2,0.1,0.5,0.2,0.7
		c0.1,0.2,0.3,0.5,0.6,0.8c0.1,0.1,0.6,0.5,1.5,1.1c1,0.7,1.7,1.4,2,1.9s0.6,1.1,0.6,1.7c0,0.8-0.3,1.5-0.9,2.2s-1.4,0.9-2.3,0.9
		c-0.7,0-1.3-0.2-1.9-0.6C262.5,281.8,262,281.1,261.5,280.3z"/>
	<path fill="#FFFFFF" d="M269.5,272.1V271h6.2v1.1h-2.5v10.3H272v-10.3H269.5z"/>
	<path fill="#FFFFFF" d="M282,271l5.3,11.4h-1.2l-1.8-3.8h-4.9l-1.8,3.8h-1.3l5.4-11.4H282z M281.9,273.4l-2,4.1h3.9L281.9,273.4z"
		/>
	<path fill="#FFFFFF" d="M289.1,271h2.2c0.9,0,1.6,0.1,2.1,0.3c0.5,0.2,0.9,0.5,1.2,1s0.4,0.9,0.4,1.5c0,0.5-0.1,1-0.4,1.4
		s-0.6,0.8-1.1,1c0.6,0.2,1,0.4,1.4,0.7c0.3,0.3,0.6,0.6,0.7,1s0.3,0.8,0.3,1.3c0,0.9-0.3,1.7-1,2.3c-0.7,0.6-1.6,1-2.7,1h-3.1V271z
		 M290.2,272.1v3.7h0.7c0.8,0,1.4-0.1,1.7-0.2s0.7-0.4,0.9-0.7c0.2-0.3,0.3-0.7,0.3-1.1c0-0.5-0.2-0.9-0.5-1.2
		c-0.4-0.3-0.9-0.4-1.7-0.4H290.2z M290.2,276.9v4.4h1.4c0.8,0,1.4-0.1,1.8-0.2c0.4-0.2,0.7-0.4,0.9-0.8c0.2-0.3,0.4-0.7,0.4-1.1
		c0-0.5-0.2-0.9-0.5-1.3c-0.3-0.4-0.8-0.6-1.4-0.8c-0.4-0.1-1.1-0.1-2-0.1H290.2z"/>
	<path fill="#FFFFFF" d="M298.2,271h1.1v10.3h4.4v1.1h-5.5V271z"/>
	<path fill="#FFFFFF" d="M305.4,271h1.1v11.4h-1.1V271z"/>
	<path fill="#FFFFFF" d="M308,280.3l1-0.6c0.7,1.3,1.5,1.9,2.4,1.9c0.4,0,0.7-0.1,1.1-0.3c0.3-0.2,0.6-0.4,0.8-0.7
		c0.2-0.3,0.3-0.6,0.3-1c0-0.4-0.1-0.8-0.4-1.1c-0.4-0.5-1-1.1-2-1.8c-1-0.7-1.5-1.2-1.8-1.6c-0.4-0.5-0.6-1.1-0.6-1.7
		c0-0.5,0.1-0.9,0.4-1.4s0.6-0.7,1-1c0.4-0.2,0.9-0.4,1.4-0.4c0.5,0,1,0.1,1.5,0.4c0.5,0.3,1,0.8,1.5,1.5l-0.9,0.7
		c-0.4-0.6-0.8-0.9-1.1-1.1c-0.3-0.2-0.6-0.3-1-0.3c-0.5,0-0.8,0.1-1.1,0.4c-0.3,0.3-0.4,0.6-0.4,1c0,0.2,0.1,0.5,0.2,0.7
		c0.1,0.2,0.3,0.5,0.6,0.8c0.1,0.1,0.6,0.5,1.5,1.1c1,0.7,1.7,1.4,2,1.9s0.6,1.1,0.6,1.7c0,0.8-0.3,1.5-0.9,2.2s-1.4,0.9-2.3,0.9
		c-0.7,0-1.3-0.2-1.9-0.6C309,281.8,308.4,281.1,308,280.3z"/>
	<path fill="#FFFFFF" d="M317,271h1.1v4.8h5.8V271h1.1v11.4H324v-5.5h-5.8v5.5H317V271z"/>
	<path fill="#FFFFFF" d="M327.9,271h6.5v1.1H329v3.6h5.4v1.1H329v4.5h5.4v1.1h-6.5V271z"/>
	<path fill="#FFFFFF" d="M336.4,282.4V271h2.4c1.7,0,2.9,0.1,3.7,0.4c1.1,0.4,2,1.1,2.6,2c0.6,1,0.9,2.1,0.9,3.4
		c0,1.1-0.2,2.1-0.7,3c-0.5,0.9-1.1,1.5-1.9,1.9c-0.8,0.4-1.9,0.6-3.3,0.6H336.4z M337.5,281.3h1.3c1.6,0,2.7-0.1,3.3-0.3
		c0.9-0.3,1.5-0.8,2-1.5c0.5-0.7,0.7-1.6,0.7-2.7c0-1.1-0.3-2-0.8-2.8s-1.3-1.3-2.2-1.6c-0.7-0.2-1.9-0.3-3.5-0.3h-0.8V281.3z"/>
	<path fill="#FFFFFF" d="M354.2,271h2.2v11.4h-1.1v-10.3h-1.8L354.2,271z"/>
	<path fill="#FFFFFF" d="M363.1,282.7l-0.9-0.6l3.1-4.7c-0.4,0.1-0.8,0.2-1.2,0.2c-0.9,0-1.7-0.3-2.3-1c-0.6-0.7-0.9-1.5-0.9-2.4
		c0-0.7,0.2-1.2,0.5-1.8c0.3-0.5,0.7-0.9,1.3-1.3c0.6-0.3,1.2-0.5,1.8-0.5c0.6,0,1.2,0.2,1.7,0.5s1,0.7,1.3,1.3s0.5,1.1,0.5,1.8
		c0,0.5-0.1,1-0.3,1.5s-0.5,1.1-1,1.9L363.1,282.7z M364.3,276.6c0.7,0,1.2-0.2,1.7-0.7c0.5-0.5,0.7-1,0.7-1.7
		c0-0.7-0.2-1.2-0.7-1.7s-1-0.7-1.7-0.7c-0.7,0-1.2,0.2-1.7,0.7s-0.7,1-0.7,1.7c0,0.7,0.2,1.2,0.7,1.7
		C363.1,276.4,363.7,276.6,364.3,276.6z"/>
	<path fill="#FFFFFF" d="M374.7,270.7l0.9,0.6l-3.1,4.7c0.4-0.1,0.8-0.2,1.2-0.2c0.9,0,1.7,0.3,2.3,1c0.6,0.7,0.9,1.5,0.9,2.4
		c0,0.7-0.2,1.3-0.5,1.8c-0.3,0.5-0.7,1-1.3,1.3c-0.6,0.3-1.2,0.5-1.8,0.5c-0.6,0-1.2-0.2-1.7-0.5c-0.5-0.3-1-0.7-1.3-1.3
		c-0.3-0.5-0.5-1.1-0.5-1.8c0-0.5,0.1-1,0.3-1.5c0.2-0.5,0.5-1.1,1-1.9L374.7,270.7z M373.4,276.8c-0.7,0-1.2,0.2-1.7,0.7
		c-0.5,0.5-0.7,1-0.7,1.7c0,0.7,0.2,1.2,0.7,1.7s1,0.7,1.7,0.7c0.7,0,1.2-0.2,1.7-0.7s0.7-1,0.7-1.7c0-0.7-0.2-1.2-0.7-1.7
		S374.1,276.8,373.4,276.8z"/>
	<path fill="#FFFFFF" d="M380.7,282.7l-0.9-0.6l3.1-4.7c-0.4,0.1-0.8,0.2-1.2,0.2c-0.9,0-1.7-0.3-2.3-1c-0.6-0.7-0.9-1.5-0.9-2.4
		c0-0.7,0.2-1.2,0.5-1.8c0.3-0.5,0.7-0.9,1.3-1.3c0.6-0.3,1.2-0.5,1.8-0.5c0.6,0,1.2,0.2,1.7,0.5s1,0.7,1.3,1.3s0.5,1.1,0.5,1.8
		c0,0.5-0.1,1-0.3,1.5s-0.5,1.1-1,1.9L380.7,282.7z M381.9,276.6c0.7,0,1.2-0.2,1.7-0.7c0.5-0.5,0.7-1,0.7-1.7
		c0-0.7-0.2-1.2-0.7-1.7s-1-0.7-1.7-0.7c-0.7,0-1.2,0.2-1.7,0.7s-0.7,1-0.7,1.7c0,0.7,0.2,1.2,0.7,1.7
		C380.7,276.4,381.3,276.6,381.9,276.6z"/>
</g>
</svg>
